<mxfile host="app.diagrams.net" agent="Mozilla/5.0 (Windows NT 10.0; Win64; x64) AppleWebKit/537.36 (KHTML, like Gecko) Chrome/138.0.0.0 Safari/537.36" version="27.2.0">
  <diagram name="Page-1" id="tho96hMRdzNu9OJR4gim">
    <mxGraphModel dx="2647" dy="2031" grid="1" gridSize="10" guides="1" tooltips="1" connect="1" arrows="1" fold="1" page="1" pageScale="1" pageWidth="850" pageHeight="1100" math="0" shadow="0">
      <root>
        <mxCell id="0" />
        <mxCell id="1" parent="0" />
        <mxCell id="Y8et7h9fZ07tMBavdX_z-9" value="main" style="swimlane;fontStyle=1;align=center;verticalAlign=top;childLayout=stackLayout;horizontal=1;startSize=26;horizontalStack=0;resizeParent=1;resizeParentMax=0;resizeLast=0;collapsible=1;marginBottom=0;whiteSpace=wrap;html=1;" parent="1" vertex="1">
          <mxGeometry x="840" y="25.999999999999996" width="260" height="124" as="geometry" />
        </mxCell>
        <mxCell id="Y8et7h9fZ07tMBavdX_z-10" value="+ projects: projectCollection" style="text;strokeColor=none;fillColor=none;align=left;verticalAlign=top;spacingLeft=4;spacingRight=4;overflow=hidden;rotatable=0;points=[[0,0.5],[1,0.5]];portConstraint=eastwest;whiteSpace=wrap;html=1;" parent="Y8et7h9fZ07tMBavdX_z-9" vertex="1">
          <mxGeometry y="26" width="260" height="64" as="geometry" />
        </mxCell>
        <mxCell id="Y8et7h9fZ07tMBavdX_z-11" value="" style="line;strokeWidth=1;fillColor=none;align=left;verticalAlign=middle;spacingTop=-1;spacingLeft=3;spacingRight=3;rotatable=0;labelPosition=right;points=[];portConstraint=eastwest;strokeColor=inherit;" parent="Y8et7h9fZ07tMBavdX_z-9" vertex="1">
          <mxGeometry y="90" width="260" height="8" as="geometry" />
        </mxCell>
        <mxCell id="Y8et7h9fZ07tMBavdX_z-12" value="-" style="text;strokeColor=none;fillColor=none;align=left;verticalAlign=top;spacingLeft=4;spacingRight=4;overflow=hidden;rotatable=0;points=[[0,0.5],[1,0.5]];portConstraint=eastwest;whiteSpace=wrap;html=1;" parent="Y8et7h9fZ07tMBavdX_z-9" vertex="1">
          <mxGeometry y="98" width="260" height="26" as="geometry" />
        </mxCell>
        <mxCell id="Y8et7h9fZ07tMBavdX_z-14" value="ProjectCollection" style="swimlane;fontStyle=1;align=center;verticalAlign=top;childLayout=stackLayout;horizontal=1;startSize=26;horizontalStack=0;resizeParent=1;resizeParentMax=0;resizeLast=0;collapsible=1;marginBottom=0;whiteSpace=wrap;html=1;" parent="1" vertex="1">
          <mxGeometry x="1215" y="60" width="240" height="126" as="geometry" />
        </mxCell>
        <mxCell id="Y8et7h9fZ07tMBavdX_z-15" value="- projects: [ProjectModel, ...]" style="text;strokeColor=none;fillColor=none;align=left;verticalAlign=top;spacingLeft=4;spacingRight=4;overflow=hidden;rotatable=0;points=[[0,0.5],[1,0.5]];portConstraint=eastwest;whiteSpace=wrap;html=1;" parent="Y8et7h9fZ07tMBavdX_z-14" vertex="1">
          <mxGeometry y="26" width="240" height="26" as="geometry" />
        </mxCell>
        <mxCell id="Y8et7h9fZ07tMBavdX_z-16" value="" style="line;strokeWidth=1;fillColor=none;align=left;verticalAlign=middle;spacingTop=-1;spacingLeft=3;spacingRight=3;rotatable=0;labelPosition=right;points=[];portConstraint=eastwest;strokeColor=inherit;" parent="Y8et7h9fZ07tMBavdX_z-14" vertex="1">
          <mxGeometry y="52" width="240" height="8" as="geometry" />
        </mxCell>
        <mxCell id="Y8et7h9fZ07tMBavdX_z-17" value="+ createProjectCollection()" style="text;strokeColor=none;fillColor=none;align=left;verticalAlign=top;spacingLeft=4;spacingRight=4;overflow=hidden;rotatable=0;points=[[0,0.5],[1,0.5]];portConstraint=eastwest;whiteSpace=wrap;html=1;" parent="Y8et7h9fZ07tMBavdX_z-14" vertex="1">
          <mxGeometry y="60" width="240" height="66" as="geometry" />
        </mxCell>
        <mxCell id="LJbB7My72uyFToXxMnKN-5" style="edgeStyle=orthogonalEdgeStyle;rounded=0;orthogonalLoop=1;jettySize=auto;html=1;exitX=0.5;exitY=0;exitDx=0;exitDy=0;entryX=0;entryY=0.5;entryDx=0;entryDy=0;" edge="1" parent="1" source="Y8et7h9fZ07tMBavdX_z-18" target="Y8et7h9fZ07tMBavdX_z-10">
          <mxGeometry relative="1" as="geometry" />
        </mxCell>
        <mxCell id="Y8et7h9fZ07tMBavdX_z-18" value="ProjectController" style="swimlane;fontStyle=1;align=center;verticalAlign=top;childLayout=stackLayout;horizontal=1;startSize=26;horizontalStack=0;resizeParent=1;resizeParentMax=0;resizeLast=0;collapsible=1;marginBottom=0;whiteSpace=wrap;html=1;" parent="1" vertex="1">
          <mxGeometry x="810" y="410" width="240" height="156" as="geometry" />
        </mxCell>
        <mxCell id="Y8et7h9fZ07tMBavdX_z-19" value="&lt;div&gt;- model: projectModel&lt;/div&gt;&lt;div&gt;- view: projectView&lt;/div&gt;" style="text;strokeColor=none;fillColor=none;align=left;verticalAlign=top;spacingLeft=4;spacingRight=4;overflow=hidden;rotatable=0;points=[[0,0.5],[1,0.5]];portConstraint=eastwest;whiteSpace=wrap;html=1;" parent="Y8et7h9fZ07tMBavdX_z-18" vertex="1">
          <mxGeometry y="26" width="240" height="74" as="geometry" />
        </mxCell>
        <mxCell id="Y8et7h9fZ07tMBavdX_z-20" value="" style="line;strokeWidth=1;fillColor=none;align=left;verticalAlign=middle;spacingTop=-1;spacingLeft=3;spacingRight=3;rotatable=0;labelPosition=right;points=[];portConstraint=eastwest;strokeColor=inherit;" parent="Y8et7h9fZ07tMBavdX_z-18" vertex="1">
          <mxGeometry y="100" width="240" height="30" as="geometry" />
        </mxCell>
        <mxCell id="Y8et7h9fZ07tMBavdX_z-21" value="+ createProjectController()" style="text;strokeColor=none;fillColor=none;align=left;verticalAlign=top;spacingLeft=4;spacingRight=4;overflow=hidden;rotatable=0;points=[[0,0.5],[1,0.5]];portConstraint=eastwest;whiteSpace=wrap;html=1;" parent="Y8et7h9fZ07tMBavdX_z-18" vertex="1">
          <mxGeometry y="130" width="240" height="26" as="geometry" />
        </mxCell>
        <mxCell id="Y8et7h9fZ07tMBavdX_z-23" value="" style="endArrow=diamondThin;endFill=1;endSize=24;html=1;rounded=0;entryX=1;entryY=0.5;entryDx=0;entryDy=0;exitX=0.001;exitY=0.175;exitDx=0;exitDy=0;exitPerimeter=0;" parent="1" source="Y8et7h9fZ07tMBavdX_z-14" target="Y8et7h9fZ07tMBavdX_z-10" edge="1">
          <mxGeometry width="160" relative="1" as="geometry">
            <mxPoint x="1095" y="329.99999999999994" as="sourcePoint" />
            <mxPoint x="1255" y="329.99999999999994" as="targetPoint" />
          </mxGeometry>
        </mxCell>
        <mxCell id="Y8et7h9fZ07tMBavdX_z-26" value="1" style="edgeLabel;html=1;align=center;verticalAlign=middle;resizable=0;points=[];" parent="Y8et7h9fZ07tMBavdX_z-23" vertex="1" connectable="0">
          <mxGeometry x="0.616" relative="1" as="geometry">
            <mxPoint x="13" y="-14" as="offset" />
          </mxGeometry>
        </mxCell>
        <mxCell id="Y8et7h9fZ07tMBavdX_z-27" value="1" style="edgeLabel;html=1;align=center;verticalAlign=middle;resizable=0;points=[];" parent="Y8et7h9fZ07tMBavdX_z-23" vertex="1" connectable="0">
          <mxGeometry x="-0.8738" y="-1" relative="1" as="geometry">
            <mxPoint x="-11" y="-11" as="offset" />
          </mxGeometry>
        </mxCell>
        <mxCell id="ah1SPfoxnXQt54STXK4x-20" style="edgeStyle=orthogonalEdgeStyle;rounded=0;orthogonalLoop=1;jettySize=auto;html=1;exitX=1.005;exitY=0.077;exitDx=0;exitDy=0;entryX=0.01;entryY=0.116;entryDx=0;entryDy=0;endArrow=none;endFill=0;exitPerimeter=0;entryPerimeter=0;" parent="1" source="cAmkA4DSfHhrkMyTJUqx-1" target="Y8et7h9fZ07tMBavdX_z-18" edge="1">
          <mxGeometry relative="1" as="geometry" />
        </mxCell>
        <mxCell id="ah1SPfoxnXQt54STXK4x-22" value="1" style="edgeLabel;html=1;align=center;verticalAlign=middle;resizable=0;points=[];" parent="ah1SPfoxnXQt54STXK4x-20" vertex="1" connectable="0">
          <mxGeometry x="-0.8773" y="1" relative="1" as="geometry">
            <mxPoint as="offset" />
          </mxGeometry>
        </mxCell>
        <mxCell id="ah1SPfoxnXQt54STXK4x-23" value="1" style="edgeLabel;html=1;align=center;verticalAlign=middle;resizable=0;points=[];" parent="ah1SPfoxnXQt54STXK4x-20" vertex="1" connectable="0">
          <mxGeometry x="0.8048" y="1" relative="1" as="geometry">
            <mxPoint as="offset" />
          </mxGeometry>
        </mxCell>
        <mxCell id="LJbB7My72uyFToXxMnKN-4" style="edgeStyle=orthogonalEdgeStyle;rounded=0;orthogonalLoop=1;jettySize=auto;html=1;exitX=0.5;exitY=0;exitDx=0;exitDy=0;entryX=0;entryY=0.25;entryDx=0;entryDy=0;" edge="1" parent="1" source="cAmkA4DSfHhrkMyTJUqx-1" target="Y8et7h9fZ07tMBavdX_z-9">
          <mxGeometry relative="1" as="geometry" />
        </mxCell>
        <mxCell id="cAmkA4DSfHhrkMyTJUqx-1" value="ProjectModel" style="swimlane;fontStyle=1;align=center;verticalAlign=top;childLayout=stackLayout;horizontal=1;startSize=26;horizontalStack=0;resizeParent=1;resizeParentMax=0;resizeLast=0;collapsible=1;marginBottom=0;whiteSpace=wrap;html=1;" parent="1" vertex="1">
          <mxGeometry x="480" y="370" width="160" height="220" as="geometry" />
        </mxCell>
        <mxCell id="cAmkA4DSfHhrkMyTJUqx-2" value="- todos: todoCollection&lt;div&gt;- title: string&lt;/div&gt;" style="text;strokeColor=none;fillColor=none;align=left;verticalAlign=top;spacingLeft=4;spacingRight=4;overflow=hidden;rotatable=0;points=[[0,0.5],[1,0.5]];portConstraint=eastwest;whiteSpace=wrap;html=1;" parent="cAmkA4DSfHhrkMyTJUqx-1" vertex="1">
          <mxGeometry y="26" width="160" height="114" as="geometry" />
        </mxCell>
        <mxCell id="cAmkA4DSfHhrkMyTJUqx-3" value="" style="line;strokeWidth=1;fillColor=none;align=left;verticalAlign=middle;spacingTop=-1;spacingLeft=3;spacingRight=3;rotatable=0;labelPosition=right;points=[];portConstraint=eastwest;strokeColor=inherit;" parent="cAmkA4DSfHhrkMyTJUqx-1" vertex="1">
          <mxGeometry y="140" width="160" height="8" as="geometry" />
        </mxCell>
        <mxCell id="cAmkA4DSfHhrkMyTJUqx-4" value="+ createProjectModel()&lt;div&gt;+ newItem()&lt;/div&gt;" style="text;strokeColor=none;fillColor=none;align=left;verticalAlign=top;spacingLeft=4;spacingRight=4;overflow=hidden;rotatable=0;points=[[0,0.5],[1,0.5]];portConstraint=eastwest;whiteSpace=wrap;html=1;" parent="cAmkA4DSfHhrkMyTJUqx-1" vertex="1">
          <mxGeometry y="148" width="160" height="72" as="geometry" />
        </mxCell>
        <mxCell id="cAmkA4DSfHhrkMyTJUqx-8" value="ProjectView" style="swimlane;fontStyle=1;align=center;verticalAlign=top;childLayout=stackLayout;horizontal=1;startSize=26;horizontalStack=0;resizeParent=1;resizeParentMax=0;resizeLast=0;collapsible=1;marginBottom=0;whiteSpace=wrap;html=1;" parent="1" vertex="1">
          <mxGeometry x="1170" y="418" width="160" height="124" as="geometry" />
        </mxCell>
        <mxCell id="cAmkA4DSfHhrkMyTJUqx-9" value="-" style="text;strokeColor=none;fillColor=none;align=left;verticalAlign=top;spacingLeft=4;spacingRight=4;overflow=hidden;rotatable=0;points=[[0,0.5],[1,0.5]];portConstraint=eastwest;whiteSpace=wrap;html=1;" parent="cAmkA4DSfHhrkMyTJUqx-8" vertex="1">
          <mxGeometry y="26" width="160" height="64" as="geometry" />
        </mxCell>
        <mxCell id="cAmkA4DSfHhrkMyTJUqx-10" value="" style="line;strokeWidth=1;fillColor=none;align=left;verticalAlign=middle;spacingTop=-1;spacingLeft=3;spacingRight=3;rotatable=0;labelPosition=right;points=[];portConstraint=eastwest;strokeColor=inherit;" parent="cAmkA4DSfHhrkMyTJUqx-8" vertex="1">
          <mxGeometry y="90" width="160" height="8" as="geometry" />
        </mxCell>
        <mxCell id="cAmkA4DSfHhrkMyTJUqx-11" value="+ createProjectView()" style="text;strokeColor=none;fillColor=none;align=left;verticalAlign=top;spacingLeft=4;spacingRight=4;overflow=hidden;rotatable=0;points=[[0,0.5],[1,0.5]];portConstraint=eastwest;whiteSpace=wrap;html=1;" parent="cAmkA4DSfHhrkMyTJUqx-8" vertex="1">
          <mxGeometry y="98" width="160" height="26" as="geometry" />
        </mxCell>
        <mxCell id="cAmkA4DSfHhrkMyTJUqx-12" value="" style="endArrow=none;endFill=0;endSize=24;html=1;rounded=0;entryX=1.003;entryY=0.085;entryDx=0;entryDy=0;entryPerimeter=0;exitX=-0.014;exitY=0.073;exitDx=0;exitDy=0;exitPerimeter=0;" parent="1" source="cAmkA4DSfHhrkMyTJUqx-8" target="Y8et7h9fZ07tMBavdX_z-18" edge="1">
          <mxGeometry width="160" relative="1" as="geometry">
            <mxPoint x="660" y="540" as="sourcePoint" />
            <mxPoint x="820" y="540" as="targetPoint" />
            <Array as="points" />
          </mxGeometry>
        </mxCell>
        <mxCell id="cAmkA4DSfHhrkMyTJUqx-13" value="1" style="edgeLabel;html=1;align=center;verticalAlign=middle;resizable=0;points=[];" parent="cAmkA4DSfHhrkMyTJUqx-12" vertex="1" connectable="0">
          <mxGeometry x="0.6531" y="-2" relative="1" as="geometry">
            <mxPoint x="-1" y="2" as="offset" />
          </mxGeometry>
        </mxCell>
        <mxCell id="cAmkA4DSfHhrkMyTJUqx-14" value="1" style="edgeLabel;html=1;align=center;verticalAlign=middle;resizable=0;points=[];" parent="cAmkA4DSfHhrkMyTJUqx-12" vertex="1" connectable="0">
          <mxGeometry x="-0.8613" y="1" relative="1" as="geometry">
            <mxPoint as="offset" />
          </mxGeometry>
        </mxCell>
        <mxCell id="cAmkA4DSfHhrkMyTJUqx-19" value="todoModel" style="swimlane;fontStyle=1;align=center;verticalAlign=top;childLayout=stackLayout;horizontal=1;startSize=26;horizontalStack=0;resizeParent=1;resizeParentMax=0;resizeLast=0;collapsible=1;marginBottom=0;whiteSpace=wrap;html=1;" parent="1" vertex="1">
          <mxGeometry x="-120" y="310" width="160" height="216" as="geometry" />
        </mxCell>
        <mxCell id="cAmkA4DSfHhrkMyTJUqx-20" value="- title: string&lt;div&gt;- id: string&lt;br&gt;&lt;div&gt;- info: string&lt;/div&gt;&lt;div&gt;- priority: int&lt;/div&gt;&lt;div&gt;- tags: [string, ...]&lt;/div&gt;&lt;div&gt;- dueDate: date&lt;/div&gt;&lt;div&gt;- createdDate: date&lt;/div&gt;&lt;/div&gt;" style="text;strokeColor=none;fillColor=none;align=left;verticalAlign=top;spacingLeft=4;spacingRight=4;overflow=hidden;rotatable=0;points=[[0,0.5],[1,0.5]];portConstraint=eastwest;whiteSpace=wrap;html=1;" parent="cAmkA4DSfHhrkMyTJUqx-19" vertex="1">
          <mxGeometry y="26" width="160" height="124" as="geometry" />
        </mxCell>
        <mxCell id="cAmkA4DSfHhrkMyTJUqx-21" value="" style="line;strokeWidth=1;fillColor=none;align=left;verticalAlign=middle;spacingTop=-1;spacingLeft=3;spacingRight=3;rotatable=0;labelPosition=right;points=[];portConstraint=eastwest;strokeColor=inherit;" parent="cAmkA4DSfHhrkMyTJUqx-19" vertex="1">
          <mxGeometry y="150" width="160" height="40" as="geometry" />
        </mxCell>
        <mxCell id="cAmkA4DSfHhrkMyTJUqx-22" value="+ createTodoModel()" style="text;strokeColor=none;fillColor=none;align=left;verticalAlign=top;spacingLeft=4;spacingRight=4;overflow=hidden;rotatable=0;points=[[0,0.5],[1,0.5]];portConstraint=eastwest;whiteSpace=wrap;html=1;" parent="cAmkA4DSfHhrkMyTJUqx-19" vertex="1">
          <mxGeometry y="190" width="160" height="26" as="geometry" />
        </mxCell>
        <mxCell id="cAmkA4DSfHhrkMyTJUqx-27" value="" style="endArrow=diamondThin;endFill=1;endSize=24;html=1;rounded=0;entryX=0;entryY=0.5;entryDx=0;entryDy=0;exitX=1.017;exitY=0.54;exitDx=0;exitDy=0;exitPerimeter=0;startArrow=classic;startFill=1;" parent="1" source="cAmkA4DSfHhrkMyTJUqx-20" target="ah1SPfoxnXQt54STXK4x-4" edge="1">
          <mxGeometry width="160" relative="1" as="geometry">
            <mxPoint x="-50" y="442.71" as="sourcePoint" />
            <mxPoint x="120" y="443" as="targetPoint" />
            <Array as="points" />
          </mxGeometry>
        </mxCell>
        <mxCell id="cAmkA4DSfHhrkMyTJUqx-37" value="1" style="edgeLabel;html=1;align=center;verticalAlign=middle;resizable=0;points=[];" parent="cAmkA4DSfHhrkMyTJUqx-27" vertex="1" connectable="0">
          <mxGeometry x="0.6864" relative="1" as="geometry">
            <mxPoint x="-13" y="-19" as="offset" />
          </mxGeometry>
        </mxCell>
        <mxCell id="cAmkA4DSfHhrkMyTJUqx-38" value="0..*" style="edgeLabel;html=1;align=center;verticalAlign=middle;resizable=0;points=[];" parent="cAmkA4DSfHhrkMyTJUqx-27" vertex="1" connectable="0">
          <mxGeometry x="-0.9012" y="1" relative="1" as="geometry">
            <mxPoint x="12" y="-15" as="offset" />
          </mxGeometry>
        </mxCell>
        <mxCell id="ah1SPfoxnXQt54STXK4x-3" value="todoCollection" style="swimlane;fontStyle=1;align=center;verticalAlign=top;childLayout=stackLayout;horizontal=1;startSize=26;horizontalStack=0;resizeParent=1;resizeParentMax=0;resizeLast=0;collapsible=1;marginBottom=0;whiteSpace=wrap;html=1;" parent="1" vertex="1">
          <mxGeometry x="165" y="352" width="190" height="190" as="geometry" />
        </mxCell>
        <mxCell id="ah1SPfoxnXQt54STXK4x-4" value="- collection: [todoModel, ... ]" style="text;strokeColor=none;fillColor=none;align=left;verticalAlign=top;spacingLeft=4;spacingRight=4;overflow=hidden;rotatable=0;points=[[0,0.5],[1,0.5]];portConstraint=eastwest;whiteSpace=wrap;html=1;" parent="ah1SPfoxnXQt54STXK4x-3" vertex="1">
          <mxGeometry y="26" width="190" height="44" as="geometry" />
        </mxCell>
        <mxCell id="ah1SPfoxnXQt54STXK4x-5" value="" style="line;strokeWidth=1;fillColor=none;align=left;verticalAlign=middle;spacingTop=-1;spacingLeft=3;spacingRight=3;rotatable=0;labelPosition=right;points=[];portConstraint=eastwest;strokeColor=inherit;" parent="ah1SPfoxnXQt54STXK4x-3" vertex="1">
          <mxGeometry y="70" width="190" height="8" as="geometry" />
        </mxCell>
        <mxCell id="ah1SPfoxnXQt54STXK4x-6" value="+ createTodoCollection()&lt;div&gt;+ addModel(): void&lt;/div&gt;" style="text;strokeColor=none;fillColor=none;align=left;verticalAlign=top;spacingLeft=4;spacingRight=4;overflow=hidden;rotatable=0;points=[[0,0.5],[1,0.5]];portConstraint=eastwest;whiteSpace=wrap;html=1;" parent="ah1SPfoxnXQt54STXK4x-3" vertex="1">
          <mxGeometry y="78" width="190" height="112" as="geometry" />
        </mxCell>
        <mxCell id="ah1SPfoxnXQt54STXK4x-17" value="" style="endArrow=diamondThin;endFill=1;endSize=24;html=1;rounded=0;exitX=1;exitY=0.5;exitDx=0;exitDy=0;entryX=-0.02;entryY=-0.001;entryDx=0;entryDy=0;entryPerimeter=0;startArrow=classic;startFill=1;" parent="1" source="ah1SPfoxnXQt54STXK4x-4" target="cAmkA4DSfHhrkMyTJUqx-2" edge="1">
          <mxGeometry width="160" relative="1" as="geometry">
            <mxPoint x="330" y="370" as="sourcePoint" />
            <mxPoint x="490" y="370" as="targetPoint" />
          </mxGeometry>
        </mxCell>
        <mxCell id="ah1SPfoxnXQt54STXK4x-18" value="1" style="edgeLabel;html=1;align=center;verticalAlign=middle;resizable=0;points=[];" parent="ah1SPfoxnXQt54STXK4x-17" vertex="1" connectable="0">
          <mxGeometry x="-0.7823" y="1" relative="1" as="geometry">
            <mxPoint as="offset" />
          </mxGeometry>
        </mxCell>
        <mxCell id="ah1SPfoxnXQt54STXK4x-19" value="1" style="edgeLabel;html=1;align=center;verticalAlign=middle;resizable=0;points=[];" parent="ah1SPfoxnXQt54STXK4x-17" vertex="1" connectable="0">
          <mxGeometry x="0.2298" y="1" relative="1" as="geometry">
            <mxPoint as="offset" />
          </mxGeometry>
        </mxCell>
        <mxCell id="ah1SPfoxnXQt54STXK4x-24" value="Publish" style="text;html=1;align=center;verticalAlign=middle;resizable=0;points=[];autosize=1;strokeColor=none;fillColor=none;" parent="1" vertex="1">
          <mxGeometry x="650" y="360" width="60" height="30" as="geometry" />
        </mxCell>
        <mxCell id="ah1SPfoxnXQt54STXK4x-25" value="Subscribe&lt;div&gt;&lt;br&gt;&lt;/div&gt;" style="text;html=1;align=center;verticalAlign=middle;resizable=0;points=[];autosize=1;strokeColor=none;fillColor=none;" parent="1" vertex="1">
          <mxGeometry x="725" y="440" width="80" height="40" as="geometry" />
        </mxCell>
        <mxCell id="LpDIbgmOpvBHCi_S2WUm-34" style="edgeStyle=orthogonalEdgeStyle;rounded=0;orthogonalLoop=1;jettySize=auto;html=1;exitX=0.5;exitY=0;exitDx=0;exitDy=0;entryX=0.5;entryY=0;entryDx=0;entryDy=0;endArrow=diamondThin;endFill=1;endSize=24;" parent="1" source="LpDIbgmOpvBHCi_S2WUm-1" target="Y8et7h9fZ07tMBavdX_z-9" edge="1">
          <mxGeometry relative="1" as="geometry">
            <Array as="points">
              <mxPoint x="2055" y="-40" />
              <mxPoint x="970" y="-40" />
            </Array>
          </mxGeometry>
        </mxCell>
        <mxCell id="LpDIbgmOpvBHCi_S2WUm-35" value="1" style="edgeLabel;html=1;align=center;verticalAlign=middle;resizable=0;points=[];" parent="LpDIbgmOpvBHCi_S2WUm-34" vertex="1" connectable="0">
          <mxGeometry x="0.9261" y="2" relative="1" as="geometry">
            <mxPoint as="offset" />
          </mxGeometry>
        </mxCell>
        <mxCell id="LpDIbgmOpvBHCi_S2WUm-36" value="1" style="edgeLabel;html=1;align=center;verticalAlign=middle;resizable=0;points=[];" parent="LpDIbgmOpvBHCi_S2WUm-34" vertex="1" connectable="0">
          <mxGeometry x="-0.9744" y="2" relative="1" as="geometry">
            <mxPoint as="offset" />
          </mxGeometry>
        </mxCell>
        <mxCell id="LpDIbgmOpvBHCi_S2WUm-1" value="projectsView" style="swimlane;fontStyle=1;align=center;verticalAlign=top;childLayout=stackLayout;horizontal=1;startSize=26;horizontalStack=0;resizeParent=1;resizeParentMax=0;resizeLast=0;collapsible=1;marginBottom=0;whiteSpace=wrap;html=1;" parent="1" vertex="1">
          <mxGeometry x="2015" y="60" width="180" height="86" as="geometry" />
        </mxCell>
        <mxCell id="LpDIbgmOpvBHCi_S2WUm-2" value="+ field: type" style="text;strokeColor=none;fillColor=none;align=left;verticalAlign=top;spacingLeft=4;spacingRight=4;overflow=hidden;rotatable=0;points=[[0,0.5],[1,0.5]];portConstraint=eastwest;whiteSpace=wrap;html=1;" parent="LpDIbgmOpvBHCi_S2WUm-1" vertex="1">
          <mxGeometry y="26" width="180" height="26" as="geometry" />
        </mxCell>
        <mxCell id="LpDIbgmOpvBHCi_S2WUm-3" value="" style="line;strokeWidth=1;fillColor=none;align=left;verticalAlign=middle;spacingTop=-1;spacingLeft=3;spacingRight=3;rotatable=0;labelPosition=right;points=[];portConstraint=eastwest;strokeColor=inherit;" parent="LpDIbgmOpvBHCi_S2WUm-1" vertex="1">
          <mxGeometry y="52" width="180" height="8" as="geometry" />
        </mxCell>
        <mxCell id="LpDIbgmOpvBHCi_S2WUm-4" value="+ method(type): type" style="text;strokeColor=none;fillColor=none;align=left;verticalAlign=top;spacingLeft=4;spacingRight=4;overflow=hidden;rotatable=0;points=[[0,0.5],[1,0.5]];portConstraint=eastwest;whiteSpace=wrap;html=1;" parent="LpDIbgmOpvBHCi_S2WUm-1" vertex="1">
          <mxGeometry y="60" width="180" height="26" as="geometry" />
        </mxCell>
        <mxCell id="LpDIbgmOpvBHCi_S2WUm-33" style="edgeStyle=orthogonalEdgeStyle;rounded=0;orthogonalLoop=1;jettySize=auto;html=1;exitX=0.5;exitY=0;exitDx=0;exitDy=0;entryX=1;entryY=0;entryDx=0;entryDy=0;endArrow=diamondThin;endFill=1;endSize=24;" parent="1" source="LpDIbgmOpvBHCi_S2WUm-18" target="Y8et7h9fZ07tMBavdX_z-9" edge="1">
          <mxGeometry relative="1" as="geometry" />
        </mxCell>
        <mxCell id="LpDIbgmOpvBHCi_S2WUm-37" value="1" style="edgeLabel;html=1;align=center;verticalAlign=middle;resizable=0;points=[];" parent="LpDIbgmOpvBHCi_S2WUm-33" vertex="1" connectable="0">
          <mxGeometry x="-0.9652" y="-1" relative="1" as="geometry">
            <mxPoint as="offset" />
          </mxGeometry>
        </mxCell>
        <mxCell id="LpDIbgmOpvBHCi_S2WUm-50" value="1" style="edgeLabel;html=1;align=center;verticalAlign=middle;resizable=0;points=[];" parent="LpDIbgmOpvBHCi_S2WUm-33" vertex="1" connectable="0">
          <mxGeometry x="0.8607" y="-1" relative="1" as="geometry">
            <mxPoint as="offset" />
          </mxGeometry>
        </mxCell>
        <mxCell id="LpDIbgmOpvBHCi_S2WUm-18" value="projectsController" style="swimlane;fontStyle=1;align=center;verticalAlign=top;childLayout=stackLayout;horizontal=1;startSize=26;horizontalStack=0;resizeParent=1;resizeParentMax=0;resizeLast=0;collapsible=1;marginBottom=0;whiteSpace=wrap;html=1;" parent="1" vertex="1">
          <mxGeometry x="1635" y="60" width="160" height="86" as="geometry" />
        </mxCell>
        <mxCell id="LpDIbgmOpvBHCi_S2WUm-19" value="+ field: type" style="text;strokeColor=none;fillColor=none;align=left;verticalAlign=top;spacingLeft=4;spacingRight=4;overflow=hidden;rotatable=0;points=[[0,0.5],[1,0.5]];portConstraint=eastwest;whiteSpace=wrap;html=1;" parent="LpDIbgmOpvBHCi_S2WUm-18" vertex="1">
          <mxGeometry y="26" width="160" height="26" as="geometry" />
        </mxCell>
        <mxCell id="LpDIbgmOpvBHCi_S2WUm-20" value="" style="line;strokeWidth=1;fillColor=none;align=left;verticalAlign=middle;spacingTop=-1;spacingLeft=3;spacingRight=3;rotatable=0;labelPosition=right;points=[];portConstraint=eastwest;strokeColor=inherit;" parent="LpDIbgmOpvBHCi_S2WUm-18" vertex="1">
          <mxGeometry y="52" width="160" height="8" as="geometry" />
        </mxCell>
        <mxCell id="LpDIbgmOpvBHCi_S2WUm-21" value="+ method(type): type" style="text;strokeColor=none;fillColor=none;align=left;verticalAlign=top;spacingLeft=4;spacingRight=4;overflow=hidden;rotatable=0;points=[[0,0.5],[1,0.5]];portConstraint=eastwest;whiteSpace=wrap;html=1;" parent="LpDIbgmOpvBHCi_S2WUm-18" vertex="1">
          <mxGeometry y="60" width="160" height="26" as="geometry" />
        </mxCell>
        <mxCell id="LpDIbgmOpvBHCi_S2WUm-22" value="" style="endArrow=none;html=1;edgeStyle=orthogonalEdgeStyle;rounded=0;exitX=1;exitY=0.5;exitDx=0;exitDy=0;entryX=0;entryY=0.5;entryDx=0;entryDy=0;" parent="1" source="Y8et7h9fZ07tMBavdX_z-15" target="LpDIbgmOpvBHCi_S2WUm-19" edge="1">
          <mxGeometry relative="1" as="geometry">
            <mxPoint x="1475" y="150" as="sourcePoint" />
            <mxPoint x="1635" y="150" as="targetPoint" />
          </mxGeometry>
        </mxCell>
        <mxCell id="LpDIbgmOpvBHCi_S2WUm-23" value="1" style="edgeLabel;resizable=0;html=1;align=left;verticalAlign=bottom;" parent="LpDIbgmOpvBHCi_S2WUm-22" connectable="0" vertex="1">
          <mxGeometry x="-1" relative="1" as="geometry">
            <mxPoint x="10" y="11" as="offset" />
          </mxGeometry>
        </mxCell>
        <mxCell id="LpDIbgmOpvBHCi_S2WUm-24" value="1" style="edgeLabel;resizable=0;html=1;align=right;verticalAlign=bottom;" parent="LpDIbgmOpvBHCi_S2WUm-22" connectable="0" vertex="1">
          <mxGeometry x="1" relative="1" as="geometry">
            <mxPoint x="-10" y="11" as="offset" />
          </mxGeometry>
        </mxCell>
        <mxCell id="LpDIbgmOpvBHCi_S2WUm-25" value="Publish" style="text;html=1;align=center;verticalAlign=middle;resizable=0;points=[];autosize=1;strokeColor=none;fillColor=none;" parent="1" vertex="1">
          <mxGeometry x="1455" y="60" width="60" height="30" as="geometry" />
        </mxCell>
        <mxCell id="LpDIbgmOpvBHCi_S2WUm-26" value="Subscribe" style="text;html=1;align=center;verticalAlign=middle;resizable=0;points=[];autosize=1;strokeColor=none;fillColor=none;" parent="1" vertex="1">
          <mxGeometry x="1550" y="60" width="80" height="30" as="geometry" />
        </mxCell>
        <mxCell id="LpDIbgmOpvBHCi_S2WUm-29" value="" style="endArrow=none;html=1;edgeStyle=orthogonalEdgeStyle;rounded=0;exitX=1;exitY=0.5;exitDx=0;exitDy=0;entryX=0;entryY=0.5;entryDx=0;entryDy=0;" parent="1" source="LpDIbgmOpvBHCi_S2WUm-19" target="LpDIbgmOpvBHCi_S2WUm-2" edge="1">
          <mxGeometry relative="1" as="geometry">
            <mxPoint x="1795" y="210" as="sourcePoint" />
            <mxPoint x="1955" y="210" as="targetPoint" />
          </mxGeometry>
        </mxCell>
        <mxCell id="LpDIbgmOpvBHCi_S2WUm-30" value="1" style="edgeLabel;resizable=0;html=1;align=left;verticalAlign=bottom;" parent="LpDIbgmOpvBHCi_S2WUm-29" connectable="0" vertex="1">
          <mxGeometry x="-1" relative="1" as="geometry">
            <mxPoint x="10" y="11" as="offset" />
          </mxGeometry>
        </mxCell>
        <mxCell id="LpDIbgmOpvBHCi_S2WUm-31" value="1" style="edgeLabel;resizable=0;html=1;align=right;verticalAlign=bottom;" parent="LpDIbgmOpvBHCi_S2WUm-29" connectable="0" vertex="1">
          <mxGeometry x="1" relative="1" as="geometry">
            <mxPoint x="-10" y="11" as="offset" />
          </mxGeometry>
        </mxCell>
        <mxCell id="LJbB7My72uyFToXxMnKN-6" style="edgeStyle=orthogonalEdgeStyle;rounded=0;orthogonalLoop=1;jettySize=auto;html=1;exitX=0.5;exitY=0;exitDx=0;exitDy=0;entryX=0.408;entryY=0.974;entryDx=0;entryDy=0;entryPerimeter=0;" edge="1" parent="1" source="cAmkA4DSfHhrkMyTJUqx-8" target="Y8et7h9fZ07tMBavdX_z-12">
          <mxGeometry relative="1" as="geometry" />
        </mxCell>
        <mxCell id="LJbB7My72uyFToXxMnKN-7" value="Main decides what controller to interact with&lt;div&gt;and will send created projects to the projectCollection&lt;/div&gt;" style="text;html=1;align=center;verticalAlign=middle;resizable=0;points=[];autosize=1;strokeColor=none;fillColor=none;" vertex="1" parent="1">
          <mxGeometry x="630" y="-60" width="310" height="40" as="geometry" />
        </mxCell>
      </root>
    </mxGraphModel>
  </diagram>
</mxfile>
